<svg xmlns="http://www.w3.org/2000/svg" width="33.428" height="33.428" viewBox="0 0 33.428 33.428">
  <path id="Icon_metro-tag" data-name="Icon metro-tag" d="M31.973,1.928H20.405a4.024,4.024,0,0,0-2.469,1.023L3.593,17.294a1.45,1.45,0,0,0,0,2.045L16.008,31.754a1.45,1.45,0,0,0,2.045,0L32.4,17.411a4.024,4.024,0,0,0,1.022-2.468V3.374a1.45,1.45,0,0,0-1.446-1.446ZM24.743,13.5A2.892,2.892,0,1,1,27.635,10.6,2.892,2.892,0,0,1,24.743,13.5Z" transform="translate(-1.491 -0.428)" fill="#fff" stroke="#000" stroke-width="3"/>
</svg>
